<svg version="1.1" id="Layer_1" xmlns="http://www.w3.org/2000/svg" xmlns:xlink="http://www.w3.org/1999/xlink" x="0px" y="0px"
	 width="100%" viewBox="0 0 394 128" enable-background="new 0 0 394 128" xml:space="preserve">
<path fill="#FEFEFE" opacity="1.000000" stroke="none" 
	d="
M302.000000,129.000000 
	C201.333344,129.000000 101.166687,129.000000 1.000027,129.000000 
	C1.000018,86.333351 1.000018,43.666702 1.000009,1.000038 
	C132.333298,1.000026 263.666595,1.000026 394.999939,1.000013 
	C394.999939,43.666630 394.999939,86.333260 394.999969,128.999939 
	C364.166656,129.000000 333.333344,129.000000 302.000000,129.000000 
M8.683132,54.403549 
	C8.353220,54.031517 8.023308,53.659485 7.361267,52.912922 
	C7.361267,75.098869 7.361267,96.904480 7.361267,119.243225 
	C8.404263,118.265671 8.988872,117.717751 10.183055,116.976227 
	C19.899626,108.968582 29.616196,100.960938 39.483715,92.828888 
	C29.045158,79.930420 18.998238,67.515869 8.683132,54.403549 
M112.337418,95.208504 
	C103.059059,102.191505 91.982788,102.406151 81.399055,95.064407 
	C75.991264,91.313118 71.278816,86.559464 66.037636,82.075386 
	C62.712029,84.865608 59.071606,87.919960 55.232220,91.141243 
	C63.616295,101.016701 70.605286,111.739334 84.793213,113.540016 
	C82.531303,115.657684 80.660393,117.409286 78.077126,119.827820 
	C88.870369,119.827820 98.616089,119.871834 108.360733,119.789169 
	C110.220497,119.773399 112.076027,119.257660 114.201622,118.072334 
	C114.217072,111.108521 114.271545,104.144257 114.191895,97.181534 
	C114.183250,96.426163 113.399101,95.679649 112.337418,95.208504 
M112.707893,44.889908 
	C109.288399,42.877552 106.053413,40.412632 102.417793,38.930382 
	C85.779312,32.146851 73.759247,45.277824 75.794754,58.967583 
	C77.493530,70.392715 92.949547,87.409416 104.394119,88.540909 
	C107.461281,88.844147 110.751282,86.893448 114.198776,85.074310 
	C114.214149,73.360756 114.271614,61.646923 114.193169,49.933998 
	C114.183022,48.420776 113.469666,46.912266 112.707893,44.889908 
M245.995712,21.924620 
	C245.980286,51.947083 245.964859,81.969551 245.408142,112.379936 
	C243.428116,114.697594 241.448090,117.015259 239.290054,119.541275 
	C248.210602,119.541275 256.716278,119.541275 265.221924,119.541275 
	C257.698090,115.245903 258.549957,108.228752 258.594513,101.326660 
	C258.717194,82.331505 258.631409,63.335041 258.647522,44.339108 
	C258.648682,42.955006 258.805908,41.571030 258.949493,39.224129 
	C260.488770,41.166599 261.391357,42.287079 262.274414,43.422691 
	C277.603027,63.134579 292.576904,83.137878 308.425201,102.422585 
	C314.984558,110.404228 323.415802,116.847549 331.935791,123.967278 
	C332.065613,115.495255 332.310028,107.023148 332.303711,98.551224 
	C332.284729,73.080795 332.168030,47.610439 332.432861,21.548849 
	C334.950195,19.116976 337.467529,16.685101 339.932953,14.303381 
	C331.453278,14.303381 322.785248,14.303381 314.228302,14.303381 
	C316.548279,16.922642 318.799774,19.464565 320.898682,22.932610 
	C320.925659,45.954269 320.952606,68.975929 320.287964,91.961517 
	C319.622284,91.227516 318.880249,90.548897 318.302002,89.751488 
	C300.831360,65.659225 283.386475,41.548252 265.892731,17.472811 
	C264.975189,16.210064 263.698456,14.316376 262.530243,14.272282 
	C254.880951,13.983566 247.215469,14.123623 240.475891,14.123623 
	C242.282776,16.347078 244.168152,18.667112 245.995712,21.924620 
M149.931427,60.499992 
	C149.931427,74.831093 149.596588,89.173508 150.080154,103.488266 
	C150.304230,110.121422 148.783493,115.190788 143.076385,118.747032 
	C142.931122,118.837540 143.028076,119.316734 143.002075,119.800423 
	C157.643066,119.800423 172.275223,119.967865 186.901489,119.746468 
	C198.223236,119.575089 208.500916,115.836456 217.205002,108.602364 
	C233.254028,95.263771 229.677444,70.582626 210.602585,62.148598 
	C207.977280,60.987820 205.169022,60.240856 202.424072,59.294937 
	C202.618698,58.941036 202.702515,58.514004 202.937164,58.401474 
	C212.941406,53.603878 217.745117,45.537128 216.610519,34.635036 
	C215.439911,23.387053 207.312454,18.028318 197.354187,15.776374 
	C190.963165,14.331120 184.189575,14.307920 177.576736,14.172805 
	C166.046768,13.937222 154.508499,14.107218 142.973724,14.107218 
	C149.793625,17.510605 150.230316,23.143829 150.019318,29.507566 
	C149.688156,39.495033 149.931427,49.501545 149.931427,60.499992 
M364.947754,14.100603 
	C363.367279,14.100603 361.786804,14.100603 360.206329,14.100603 
	C367.075500,17.592819 367.116302,23.466024 367.052368,29.883333 
	C366.820160,53.183079 366.888092,76.486900 367.002930,99.788391 
	C367.039703,107.250198 368.028900,114.864464 358.908569,119.495918 
	C370.217560,119.495918 380.189026,119.495918 391.872681,119.495918 
	C383.322723,115.625847 382.640228,109.656776 382.725098,102.695045 
	C383.027435,77.898682 383.054016,53.093338 382.695038,28.298485 
	C382.605347,22.103224 384.010803,17.658197 389.708130,14.955254 
	C389.838135,14.893596 389.775055,14.424973 389.806458,14.100620 
	C381.814087,14.100620 373.826935,14.100620 364.947754,14.100603 
M48.919292,57.550827 
	C40.800182,43.788952 35.887115,29.494116 41.849548,13.349671 
	C30.187077,13.349671 18.790310,13.349671 6.998419,13.349671 
	C6.998419,16.742073 7.268010,19.900587 6.937701,22.995066 
	C6.388614,28.139154 8.127589,32.103806 11.425786,36.061897 
	C21.231977,47.830090 30.663925,59.910084 40.245098,71.865845 
	C43.550915,75.990967 46.865459,80.109100 50.232655,84.300934 
	C54.186691,81.147568 57.758991,78.298637 61.157589,75.588234 
	C56.943043,69.447998 53.087276,63.830471 48.919292,57.550827 
M56.289848,13.395016 
	C55.658813,17.261166 54.331612,21.164429 54.535336,24.986080 
	C55.025528,34.181561 59.099518,42.239620 64.100243,49.796799 
	C65.012741,51.175793 66.577042,52.123478 67.840454,53.270267 
	C68.660736,51.848728 69.839600,50.522301 70.245789,48.990925 
	C74.270241,33.818169 88.622047,23.605101 103.871048,25.093931 
	C107.239723,25.422834 110.643295,25.394403 114.030800,25.530512 
	C114.089806,21.880854 114.169441,18.231255 114.179810,14.581459 
	C114.181007,14.159799 113.797020,13.737045 113.490059,13.106041 
	C94.701218,13.106041 75.916313,13.106041 56.289848,13.395016 
M49.730659,105.750694 
	C48.027393,103.735458 46.324131,101.720230 44.368950,99.406944 
	C36.362679,106.109962 28.585142,112.621483 20.368567,119.500580 
	C34.324795,119.500580 47.322815,119.500580 61.054066,119.500580 
	C57.111526,114.727470 53.638115,110.522324 49.730659,105.750694 
z"/>
<path fill="#035F6B" opacity="1.000000" stroke="none" 
	d="
M149.931427,59.999992 
	C149.931427,49.501545 149.688156,39.495033 150.019318,29.507566 
	C150.230316,23.143829 149.793625,17.510605 142.973724,14.107218 
	C154.508499,14.107218 166.046768,13.937222 177.576736,14.172805 
	C184.189575,14.307920 190.963165,14.331120 197.354187,15.776374 
	C207.312454,18.028318 215.439911,23.387053 216.610519,34.635036 
	C217.745117,45.537128 212.941406,53.603878 202.937164,58.401474 
	C202.702515,58.514004 202.618698,58.941036 202.424072,59.294937 
	C205.169022,60.240856 207.977280,60.987820 210.602585,62.148598 
	C229.677444,70.582626 233.254028,95.263771 217.205002,108.602364 
	C208.500916,115.836456 198.223236,119.575089 186.901489,119.746468 
	C172.275223,119.967865 157.643066,119.800423 143.002075,119.800423 
	C143.028076,119.316734 142.931122,118.837540 143.076385,118.747032 
	C148.783493,115.190788 150.304230,110.121422 150.080154,103.488266 
	C149.596588,89.173508 149.931427,74.831093 149.931427,59.999992 
M167.659714,57.496899 
	C173.787033,57.568676 179.923523,57.881882 186.039322,57.649849 
	C193.339966,57.372860 200.306229,49.752804 200.830643,41.982021 
	C201.393814,33.636837 196.124115,25.731588 188.221542,24.885771 
	C181.233826,24.137875 174.084610,24.899044 166.409775,25.581390 
	C166.272781,34.337036 166.079193,43.092472 166.047287,51.848499 
	C166.041031,53.566360 166.660095,55.286503 167.659714,57.496899 
M167.466492,107.668304 
	C173.920441,107.757065 180.375046,107.812340 186.828156,107.942978 
	C195.064957,108.109741 201.580414,104.447533 206.732529,98.449226 
	C213.727417,90.305496 212.502136,78.411354 203.808578,72.158730 
	C200.008209,69.425407 195.290726,67.967224 190.380585,65.364761 
	C182.924881,65.548340 175.469177,65.731918 167.579422,66.203171 
	C167.363129,66.471992 167.146835,66.740814 166.365280,67.618942 
	C166.259415,80.172752 166.141846,92.726501 166.085709,105.280533 
	C166.083160,105.849075 166.635849,106.420105 167.466492,107.668304 
z"/>
<path fill="#05606C" opacity="1.000000" stroke="none" 
	d="
M330.995758,123.990479 
	C323.415802,116.847549 314.984558,110.404228 308.425201,102.422585 
	C292.576904,83.137878 277.603027,63.134579 262.274414,43.422691 
	C261.391357,42.287079 260.488770,41.166599 258.949493,39.224129 
	C258.805908,41.571030 258.648682,42.955006 258.647522,44.339108 
	C258.631409,63.335041 258.717194,82.331505 258.594513,101.326660 
	C258.549957,108.228752 257.698090,115.245903 265.221924,119.541275 
	C256.716278,119.541275 248.210602,119.541275 239.290054,119.541275 
	C241.448090,117.015259 243.428116,114.697594 245.988464,111.903564 
	C246.712570,110.620552 246.981369,109.814026 246.982010,109.007278 
	C247.004395,80.902992 247.013550,52.798664 246.962021,24.694460 
	C246.959747,23.458126 246.369766,22.222870 246.053543,20.987129 
	C244.168152,18.667112 242.282776,16.347078 240.475891,14.123623 
	C247.215469,14.123623 254.880951,13.983566 262.530243,14.272282 
	C263.698456,14.316376 264.975189,16.210064 265.892731,17.472811 
	C283.386475,41.548252 300.831360,65.659225 318.302002,89.751488 
	C318.880249,90.548897 319.622284,91.227516 320.936340,91.690353 
	C321.721283,90.777969 321.976440,90.136871 321.977142,89.495506 
	C322.000366,68.066086 322.012848,46.636597 321.961273,25.207277 
	C321.958679,24.139624 321.368073,23.073387 321.051239,22.006489 
	C318.799774,19.464565 316.548279,16.922642 314.228302,14.303381 
	C322.785248,14.303381 331.453278,14.303381 339.932953,14.303381 
	C337.467529,16.685101 334.950195,19.116976 331.987000,21.702480 
	C331.360260,23.434235 331.023071,25.012201 331.021545,26.590498 
	C330.989990,59.057133 330.996643,91.523804 330.995758,123.990479 
z"/>
<path fill="#06606C" opacity="1.000000" stroke="none" 
	d="
M365.393768,14.100612 
	C373.826935,14.100620 381.814087,14.100620 389.806458,14.100620 
	C389.775055,14.424973 389.838135,14.893596 389.708130,14.955254 
	C384.010803,17.658197 382.605347,22.103224 382.695038,28.298485 
	C383.054016,53.093338 383.027435,77.898682 382.725098,102.695045 
	C382.640228,109.656776 383.322723,115.625847 391.872681,119.495918 
	C380.189026,119.495918 370.217560,119.495918 358.908569,119.495918 
	C368.028900,114.864464 367.039703,107.250198 367.002930,99.788391 
	C366.888092,76.486900 366.820160,53.183079 367.052368,29.883333 
	C367.116302,23.466024 367.075500,17.592819 360.206329,14.100603 
	C361.786804,14.100603 363.367279,14.100603 365.393768,14.100612 
z"/>
<path fill="#F15B24" opacity="1.000000" stroke="none" 
	d="
M49.075401,57.881889 
	C53.087276,63.830471 56.943043,69.447998 61.157589,75.588234 
	C57.758991,78.298637 54.186691,81.147568 50.232655,84.300934 
	C46.865459,80.109100 43.550915,75.990967 40.245098,71.865845 
	C30.663925,59.910084 21.231977,47.830090 11.425786,36.061897 
	C8.127589,32.103806 6.388614,28.139154 6.937701,22.995066 
	C7.268010,19.900587 6.998419,16.742073 6.998419,13.349671 
	C18.790310,13.349671 30.187077,13.349671 41.849548,13.349671 
	C35.887115,29.494116 40.800182,43.788952 49.075401,57.881889 
z"/>
<path fill="#F15A23" opacity="1.000000" stroke="none" 
	d="
M113.938988,85.977470 
	C110.751282,86.893448 107.461281,88.844147 104.394119,88.540909 
	C92.949547,87.409416 77.493530,70.392715 75.794754,58.967583 
	C73.759247,45.277824 85.779312,32.146851 102.417793,38.930382 
	C106.053413,40.412632 109.288399,42.877552 112.874725,45.658401 
	C113.027771,58.212425 112.982582,69.998123 113.041763,81.783287 
	C113.048798,83.182816 113.626053,84.579475 113.938988,85.977470 
z"/>
<path fill="#F15B25" opacity="1.000000" stroke="none" 
	d="
M56.710625,13.250528 
	C75.916313,13.106041 94.701218,13.106041 113.490059,13.106041 
	C113.797020,13.737045 114.181007,14.159799 114.179810,14.581459 
	C114.169441,18.231255 114.089806,21.880854 114.030800,25.530514 
	C110.643295,25.394403 107.239723,25.422834 103.871048,25.093931 
	C88.622047,23.605101 74.270241,33.818169 70.245789,48.990925 
	C69.839600,50.522301 68.660736,51.848728 67.840454,53.270264 
	C66.577042,52.123478 65.012741,51.175793 64.100243,49.796799 
	C59.099518,42.239620 55.025528,34.181561 54.535336,24.986080 
	C54.331612,21.164429 55.658813,17.261166 56.710625,13.250528 
z"/>
<path fill="#F15C25" opacity="1.000000" stroke="none" 
	d="
M113.933502,118.972580 
	C112.076027,119.257660 110.220497,119.773399 108.360733,119.789169 
	C98.616089,119.871834 88.870369,119.827820 78.077126,119.827820 
	C80.660393,117.409286 82.531303,115.657684 84.793213,113.540016 
	C70.605286,111.739334 63.616295,101.016701 55.232220,91.141243 
	C59.071606,87.919960 62.712029,84.865608 66.037636,82.075386 
	C71.278816,86.559464 75.991264,91.313118 81.399055,95.064407 
	C91.982788,102.406151 103.059059,102.191505 112.663551,95.542145 
	C112.992210,98.363579 112.899445,100.855896 113.017006,103.338242 
	C113.263962,108.552467 113.621414,113.761452 113.933502,118.972580 
z"/>
<path fill="#F15A23" opacity="1.000000" stroke="none" 
	d="
M8.951315,55.101326 
	C18.998238,67.515869 29.045158,79.930420 39.483715,92.828888 
	C29.616196,100.960938 19.899626,108.968582 9.485696,116.844704 
	C8.528090,115.779900 8.043153,114.847183 8.040801,113.913254 
	C7.994637,95.583138 7.985709,77.252815 8.043859,58.922771 
	C8.047902,57.648006 8.635230,56.375099 8.951315,55.101326 
z"/>
<path fill="#F15E28" opacity="1.000000" stroke="none" 
	d="
M49.947681,106.033936 
	C53.638115,110.522324 57.111526,114.727470 61.054066,119.500580 
	C47.322815,119.500580 34.324795,119.500580 20.368567,119.500580 
	C28.585142,112.621483 36.362679,106.109962 44.368950,99.406944 
	C46.324131,101.720230 48.027393,103.735458 49.947681,106.033936 
z"/>
<path fill="#015663" opacity="1.000000" stroke="none" 
	d="
M331.465759,123.978874 
	C330.996643,91.523804 330.989990,59.057133 331.021545,26.590498 
	C331.023071,25.012201 331.360260,23.434235 331.815308,21.998085 
	C332.168030,47.610439 332.284729,73.080795 332.303711,98.551224 
	C332.310028,107.023148 332.065613,115.495255 331.465759,123.978874 
z"/>
<path fill="#004D5B" opacity="1.000000" stroke="none" 
	d="
M246.024628,21.455866 
	C246.369766,22.222870 246.959747,23.458126 246.962021,24.694460 
	C247.013550,52.798664 247.004395,80.902992 246.982010,109.007278 
	C246.981369,109.814026 246.712570,110.620552 246.259109,111.709595 
	C245.964859,81.969551 245.980286,51.947083 246.024628,21.455866 
z"/>
<path fill="#00505E" opacity="1.000000" stroke="none" 
	d="
M320.974976,22.469549 
	C321.368073,23.073387 321.958679,24.139624 321.961273,25.207277 
	C322.012848,46.636597 322.000366,68.066086 321.977142,89.495506 
	C321.976440,90.136871 321.721283,90.777969 321.282166,91.708389 
	C320.952606,68.975929 320.925659,45.954269 320.974976,22.469549 
z"/>
<path fill="#F04E01" opacity="1.000000" stroke="none" 
	d="
M8.817223,54.752438 
	C8.635230,56.375099 8.047902,57.648006 8.043859,58.922771 
	C7.985709,77.252815 7.994637,95.583138 8.040801,113.913254 
	C8.043153,114.847183 8.528090,115.779900 9.180909,116.941498 
	C8.988872,117.717751 8.404263,118.265671 7.361267,119.243225 
	C7.361267,96.904480 7.361267,75.098869 7.361267,52.912922 
	C8.023308,53.659485 8.353220,54.031517 8.817223,54.752438 
z"/>
<path fill="#F05009" opacity="1.000000" stroke="none" 
	d="
M114.068878,85.525894 
	C113.626053,84.579475 113.048798,83.182816 113.041763,81.783287 
	C112.982582,69.998123 113.027771,58.212425 113.061813,45.914230 
	C113.469666,46.912266 114.183022,48.420776 114.193169,49.933998 
	C114.271614,61.646923 114.214149,73.360756 114.068878,85.525894 
z"/>
<path fill="#F0500A" opacity="1.000000" stroke="none" 
	d="
M114.067566,118.522461 
	C113.621414,113.761452 113.263962,108.552467 113.017006,103.338242 
	C112.899445,100.855896 112.992210,98.363579 112.982178,95.402405 
	C113.399101,95.679649 114.183250,96.426163 114.191895,97.181534 
	C114.271545,104.144257 114.217072,111.108521 114.067566,118.522461 
z"/>
<path fill="#FCFDFD" opacity="1.000000" stroke="none" 
	d="
M190.989716,65.929985 
	C195.290726,67.967224 200.008209,69.425407 203.808578,72.158730 
	C212.502136,78.411354 213.727417,90.305496 206.732529,98.449226 
	C201.580414,104.447533 195.064957,108.109741 186.828156,107.942978 
	C180.375046,107.812340 173.920441,107.757065 167.265656,106.865097 
	C167.020050,93.044472 166.975296,80.027046 166.930542,67.009628 
	C167.146835,66.740814 167.363129,66.471992 168.261230,66.117737 
	C176.291946,65.998199 183.640823,65.964096 190.989716,65.929985 
z"/>
<path fill="#F8FAFB" opacity="1.000000" stroke="none" 
	d="
M167.006699,24.993950 
	C174.084610,24.899044 181.233826,24.137875 188.221542,24.885771 
	C196.124115,25.731588 201.393814,33.636837 200.830643,41.982021 
	C200.306229,49.752804 193.339966,57.372860 186.039322,57.649849 
	C179.923523,57.881882 173.787033,57.568676 167.362061,56.783043 
	C167.045166,45.710773 167.025925,35.352360 167.006699,24.993950 
z"/>
<path fill="#00505E" opacity="1.000000" stroke="none" 
	d="
M166.647919,67.314285 
	C166.975296,80.027046 167.020050,93.044472 166.997375,106.525932 
	C166.635849,106.420105 166.083160,105.849075 166.085709,105.280533 
	C166.141846,92.726501 166.259415,80.172752 166.647919,67.314285 
z"/>
<path fill="#00505E" opacity="1.000000" stroke="none" 
	d="
M166.708237,25.287670 
	C167.025925,35.352360 167.045166,45.710773 167.027588,56.537392 
	C166.660095,55.286503 166.041031,53.566360 166.047287,51.848499 
	C166.079193,43.092472 166.272781,34.337036 166.708237,25.287670 
z"/>
<path fill="#00515F" opacity="1.000000" stroke="none" 
	d="
M190.685150,65.647369 
	C183.640823,65.964096 176.291946,65.998199 168.478271,65.973907 
	C175.469177,65.731918 182.924881,65.548340 190.685150,65.647369 
z"/>
</svg>