<svg version="1.1" id="Layer_1" xmlns="http://www.w3.org/2000/svg" xmlns:xlink="http://www.w3.org/1999/xlink" x="0px" y="0px"
	 width="100%" viewBox="0 0 225 225" enable-background="new 0 0 225 225" xml:space="preserve">
<path fill="#FFFFFF" opacity="1.000000" stroke="none" 
	d="
M130.000000,226.000000 
	C88.000000,226.000000 46.499809,225.946701 5.000367,226.098312 
	C1.574468,226.110809 0.897812,225.424377 0.903702,221.999847 
	C1.030419,148.333389 1.000000,74.666687 1.000000,1.000010 
	C74.666656,1.000000 148.333359,1.030417 221.999802,0.903709 
	C225.424240,0.897819 226.102371,1.575540 226.096344,5.000135 
	C225.969025,77.333244 225.969055,149.666687 226.096359,221.999786 
	C226.102386,225.424210 225.426926,226.119019 221.999481,226.099747 
	C191.500427,225.928345 161.000015,226.000000 130.000000,226.000000 
z"/>
<path fill="#B4D44B" opacity="1.000000" stroke="none" 
	d="
M116.563599,103.870201 
	C118.605370,102.010300 120.706436,100.377769 122.941010,98.954910 
	C126.967377,96.391144 131.796799,97.164650 133.975464,100.595184 
	C136.077972,103.905792 134.680145,108.862427 130.648514,111.323082 
	C125.381844,114.537521 119.917595,114.176445 114.224693,111.346436 
	C114.551506,108.667717 117.046951,106.992439 116.563599,103.870201 
z"/>
<path fill="#28AAE0" opacity="1.000000" stroke="none" 
	d="
M112.772057,110.758759 
	C107.585213,114.172752 102.154373,114.423141 96.762550,111.706818 
	C92.464607,109.541595 90.661949,104.341728 92.658905,100.818481 
	C94.709793,97.200089 99.804802,96.482948 104.125076,99.220718 
	C106.213745,100.544296 108.283310,101.898018 110.581406,103.463264 
	C108.930824,106.647255 111.088531,108.463409 112.772057,110.758759 
z"/>
<path fill="#FBAB1C" opacity="1.000000" stroke="none" 
	d="
M120.746758,94.767204 
	C118.405502,99.502159 114.890022,100.987839 110.318413,99.232063 
	C106.421158,97.735275 104.730354,94.580795 105.321327,90.508598 
	C106.049683,85.489769 110.664536,82.802391 115.964188,84.047638 
	C120.043129,85.006065 121.985291,89.138687 120.746758,94.767204 
z"/>
<path fill="#138843" opacity="1.000000" stroke="none" 
	d="
M83.757248,129.134720 
	C84.762253,133.248047 83.741852,136.239319 79.597824,136.945312 
	C75.557129,137.633667 71.542358,137.507904 69.845505,132.306244 
	C72.315605,131.532715 73.507645,133.590515 75.181496,134.280807 
	C77.465187,135.222595 79.719299,135.188492 80.676834,132.757782 
	C81.598434,130.418289 79.340485,129.757645 77.634430,129.082413 
	C76.861961,128.776672 76.096115,128.417068 75.292625,128.233551 
	C72.443497,127.582787 70.221176,126.264664 70.327278,122.978851 
	C70.414825,120.267776 72.256721,118.854668 74.722023,118.253983 
	C77.854126,117.490829 80.695839,118.061691 82.856575,120.597183 
	C83.281174,121.095421 84.061722,122.088547 83.254272,122.695816 
	C82.719475,123.098030 81.579712,123.094803 80.904564,122.811409 
	C80.042107,122.449417 79.450775,121.482063 78.607307,121.025566 
	C76.967140,120.137878 75.124527,120.222374 74.222878,121.888618 
	C73.086601,123.988487 74.891647,124.751694 76.513641,125.402405 
	C78.943726,126.377312 81.741928,126.607590 83.757248,129.134720 
z"/>
<path fill="#138843" opacity="1.000000" stroke="none" 
	d="
M157.000031,128.163910 
	C157.000122,128.786697 157.000122,128.952652 157.000107,129.118622 
	C156.999924,136.696243 155.848694,137.754364 148.291885,137.122681 
	C144.668304,136.819778 141.780151,133.265182 142.062088,129.455353 
	C142.359039,125.442657 145.388046,122.650429 149.219620,122.677841 
	C151.371201,122.693253 153.200333,123.840744 155.695435,123.346245 
	C157.926697,122.904045 156.463211,126.180008 157.000031,128.163910 
z"/>
<path fill="#138843" opacity="1.000000" stroke="none" 
	d="
M102.778503,134.529327 
	C103.947067,134.413681 104.767891,134.259277 105.506325,133.923615 
	C106.655411,133.401291 108.090225,131.953400 108.939125,133.487289 
	C109.931831,135.281036 107.825661,136.029633 106.628044,136.635971 
	C103.321831,138.309845 98.784294,136.735626 97.144028,133.542618 
	C95.204926,129.767914 96.572914,124.762932 100.288681,123.302879 
	C103.845406,121.905327 107.207558,122.378937 109.340714,126.073547 
	C111.278969,129.430588 110.486137,130.844040 106.713379,130.920059 
	C105.550217,130.943497 104.377556,130.835785 103.225090,130.949203 
	C102.163391,131.053680 100.597610,130.300568 100.152611,131.617950 
	C99.598740,133.257645 101.276016,133.752808 102.778503,134.529327 
z"/>
<path fill="#138843" opacity="1.000000" stroke="none" 
	d="
M119.295181,130.923340 
	C117.974052,131.105560 116.769310,130.456177 116.280090,131.629852 
	C115.901375,132.538437 116.689728,133.191666 117.360062,133.633072 
	C118.456589,134.355118 119.549080,134.954025 121.042336,134.390305 
	C122.403946,133.876266 123.591469,131.782883 125.347855,133.594391 
	C125.551392,133.804321 125.475761,134.585358 125.244141,134.866425 
	C124.038017,136.330063 122.496689,137.128143 120.530266,137.186508 
	C116.814079,137.296829 113.911652,136.023651 113.012604,132.213486 
	C112.155869,128.582611 112.745819,125.071518 116.567390,123.363365 
	C119.872238,121.886185 123.081192,122.340302 125.357521,125.549477 
	C126.323494,126.911324 127.104248,128.572388 126.336037,130.158615 
	C125.633484,131.609253 123.953362,130.772583 122.707321,130.903091 
	C121.725616,131.005920 120.724495,130.923508 119.295181,130.923340 
z"/>
<path fill="#138843" opacity="1.000000" stroke="none" 
	d="
M127.927429,124.052231 
	C130.416260,121.867805 131.003891,124.176781 131.717255,125.657333 
	C132.712891,127.723732 133.415695,129.931229 134.362671,132.386551 
	C136.468719,129.896286 136.846939,127.025276 138.101822,124.583206 
	C138.641388,123.533180 139.602951,122.493217 140.877869,123.176674 
	C142.070129,123.815819 141.109390,124.974571 140.799850,125.741104 
	C138.948013,130.326950 137.019730,134.883560 135.021576,139.407776 
	C134.361420,140.902496 133.584076,142.472595 131.829041,142.988235 
	C130.730865,143.310867 129.271881,143.655701 128.606110,142.559189 
	C127.620132,140.935272 129.344604,140.778702 130.296646,140.313629 
	C132.957306,139.013901 133.115509,137.035080 132.049789,134.548065 
	C130.620163,131.211823 129.330734,127.815514 127.927429,124.052231 
z"/>
<path fill="#138843" opacity="1.000000" stroke="none" 
	d="
M90.343063,128.841888 
	C90.166214,130.891220 90.150543,132.543152 90.049065,134.189789 
	C89.983566,135.252731 90.407059,136.710541 88.635719,136.793549 
	C86.422394,136.897278 87.034393,135.133896 86.996796,133.972931 
	C86.911293,131.333344 86.944923,128.688736 86.979370,126.046829 
	C87.002754,124.252914 86.635048,121.847260 89.725883,123.776405 
	C90.410019,124.203415 90.900276,124.008263 91.488457,123.680122 
	C92.597778,123.061234 94.020271,122.053864 94.714958,123.809196 
	C95.411018,125.567993 93.552292,125.694618 92.456253,126.328529 
	C91.654236,126.792389 91.120941,127.720856 90.343063,128.841888 
z"/>
<path fill="#138843" opacity="1.000000" stroke="none" 
	d="
M113.114380,111.100479 
	C110.817055,109.122536 105.857361,108.238663 110.505325,103.814217 
	C112.431206,103.687012 114.061142,103.685585 116.067596,103.616241 
	C120.151489,107.107986 116.961731,108.757645 114.228310,110.850464 
	C113.777473,111.101273 113.587975,111.107651 113.114380,111.100479 
z"/>
<path fill="#EFF6F2" opacity="1.000000" stroke="none" 
	d="
M149.943832,125.318161 
	C152.976349,126.289490 154.463318,128.065277 153.850891,130.973221 
	C153.388840,133.167053 151.762009,134.338242 149.570435,134.347397 
	C147.579910,134.355713 146.047134,133.236786 145.518616,131.320435 
	C144.563828,127.858353 146.443100,126.103622 149.943832,125.318161 
z"/>
<path fill="#EFF6F2" opacity="1.000000" stroke="none" 
	d="
M100.670059,128.553894 
	C99.552567,126.442360 101.045372,125.821022 102.370857,125.275665 
	C103.671715,124.740463 104.921768,125.124870 105.930229,126.125984 
	C106.505981,126.697533 107.239738,127.411568 106.633797,128.193207 
	C105.837959,129.219803 104.545609,128.566727 103.478165,128.682068 
	C102.678230,128.768478 101.859955,128.685120 100.670059,128.553894 
z"/>
<path fill="#EFF6F2" opacity="1.000000" stroke="none" 
	d="
M122.975685,127.301857 
	C122.892403,128.455826 122.341293,128.779190 121.656029,128.669678 
	C119.853294,128.381546 117.784721,129.561432 116.314644,127.808037 
	C116.157059,127.620071 116.898384,126.356255 117.473930,125.933632 
	C119.551628,124.407982 121.398735,124.850700 122.975685,127.301857 
z"/>
</svg>